<svg id="Layer_1" enable-background="new 0 0 510 510" height="512" viewBox="0 0 510 510" width="512" xmlns="http://www.w3.org/2000/svg"><g id="XMLID_2256_"><path id="XMLID_2259_" d="m30 194.51v315h90l135-270 10-22.918-10-22.082-112.5-10z" fill="#ffdf40"/><path id="XMLID_2262_" d="m480 194.51-112.5-10-112.5 10v45l135 270h90z" fill="#ffbe40"/><path id="XMLID_2263_" d="m0 96.115v49.197 49.198h255l10-97.01-10-97.01z" fill="#ff4b87"/><path id="XMLID_2266_" d="m510 96.115-255-95.625v194.02h255v-49.198z" fill="#e62e6b"/><path id="XMLID_2269_" d="m120 314.51v65l67.5 10 67.5-10 10-32.5-10-32.5-67.5-10z" fill="#4d5e80"/><path id="XMLID_2272_" d="m390 314.51-67.5-10-67.5 10v65l67.5 10 67.5-10z" fill="#3d4566"/><path id="XMLID_2275_" d="m120 444.51v65h135l10-32.5-10-32.5-67.5-10z" fill="#4d5e80"/><path id="XMLID_2278_" d="m390 444.51-67.5-10-67.5 10v65h135z" fill="#3d4566"/><path id="XMLID_2268_" d="m120 379.51v65h135l10-32.5-10-32.5z" fill="#3d4566"/><path id="XMLID_2267_" d="m255 379.51h135v65h-135z" fill="#2e2e4d"/><g fill="#edf3f9"><path id="XMLID_2283_" d="m120 105h30v30h-30z"/><path id="XMLID_2284_" d="m180 105h30v30h-30z"/><path id="XMLID_2285_" d="m240 105v30h15l10-15-10-15z"/></g><path id="XMLID_2288_" d="m255 104.51h15v30h-15z" fill="#d8e2f0"/><path id="XMLID_2291_" d="m300 104.51h30v30h-30z" fill="#d8e2f0"/><path id="XMLID_2294_" d="m360 104.51h30v30h-30z" fill="#d8e2f0"/><path id="XMLID_2295_" d="m90 239.51v75h165l10-37.5-10-37.5z" fill="#3d4566"/><path id="XMLID_2298_" d="m255 239.51h165v75h-165z" fill="#2e2e4d"/></g></svg>